<?xml version="1.0" encoding="UTF-8" standalone="no"?>
<svg
   xmlns:dc="http://purl.org/dc/elements/1.1/"
   xmlns:cc="http://creativecommons.org/ns#"
   xmlns:rdf="http://www.w3.org/1999/02/22-rdf-syntax-ns#"
   xmlns:svg="http://www.w3.org/2000/svg"
   xmlns="http://www.w3.org/2000/svg"
   xmlns:sodipodi="http://sodipodi.sourceforge.net/DTD/sodipodi-0.dtd"
   xmlns:inkscape="http://www.inkscape.org/namespaces/inkscape"
   width="400"
   height="200"
   version="1.1"
   viewBox="0 0 400 200"
   id="svg280"
   sodipodi:docname="social.svg"
   inkscape:version="1.0 (4035a4fb49, 2020-05-01)"
   inkscape:export-filename="D:\Programming\Workspace\Javascript\VS Code\vscode-snippets-ranger\img\social.png"
   inkscape:export-xdpi="307.20001"
   inkscape:export-ydpi="307.20001">
  <defs
     id="defs284" />
  <sodipodi:namedview
     inkscape:document-rotation="0"
     pagecolor="#ffffff"
     bordercolor="#666666"
     borderopacity="1"
     objecttolerance="10"
     gridtolerance="10"
     guidetolerance="10"
     inkscape:pageopacity="0"
     inkscape:pageshadow="2"
     inkscape:window-width="1600"
     inkscape:window-height="837"
     id="namedview282"
     showgrid="false"
     inkscape:snap-global="false"
     inkscape:zoom="0.8375"
     inkscape:cx="92.745642"
     inkscape:cy="70.623542"
     inkscape:window-x="-8"
     inkscape:window-y="-8"
     inkscape:window-maximized="1"
     inkscape:current-layer="svg280" />
  <metadata
     id="metadata2">
    <rdf:RDF>
      <cc:Work
         rdf:about="">
        <dc:format>image/svg+xml</dc:format>
        <dc:type
           rdf:resource="http://purl.org/dc/dcmitype/StillImage" />
        <dc:title></dc:title>
      </cc:Work>
    </rdf:RDF>
  </metadata>
  <rect
     y="0"
     x="0"
     height="200"
     width="400"
     id="rect965"
     style="fill:#3535ff;fill-opacity:1;fill-rule:evenodd;stroke-width:5;stroke-linejoin:round" />
  <circle
     id="circle4"
     style="paint-order:stroke fill markers"
     fill="#fcff29"
     r="86.002998"
     cy="92.823044"
     cx="200.00299" />
  <g
     id="g12"
     stroke-linejoin="round"
     stroke-linecap="round"
     stroke="#000000"
     fill-rule="evenodd"
     transform="matrix(0.84272632,0,0,0.84272632,114.85966,29.832567)">
    <path
       id="path6"
       style="paint-order:stroke fill markers"
       stroke-width="1.5"
       fill="#eb1473"
       d="M 105.58,45.186 C 99.3316,46.6632 94.185,47.5235 88.596,51.2662 85.0582,46.7512 80.1639,41.6119 76.925,36.8802 L 72.6507,31.1811 70.4355,27.9675 64.8947,31.7141 C 66.4425,36.4789 67.9925,41.233 70.2244,45.6981 72.2916,52.0448 75.5183,57.5611 79.0896,63.1121 85.9458,64.8349 92.8266,64.08429 99.8276,63.95641 L 103.152,63.7981 100.6835,54.8509 C 100.32217,52.2603 105.8993,47.782 105.5794,45.186 Z" />
    <path
       id="path8"
       style="paint-order:stroke fill markers"
       stroke-width="1.5"
       fill="#e6e6e6"
       d="M 64.327,31.705 70.2281,27.8129 C 74.8484,33.8084 79.22,39.9029 84.0441,45.7349 L 72.8771,52.803 C 69.7064,45.851 66.5854,38.993 64.3279,31.705 Z" />
    <path
       id="path10"
       style="paint-order:stroke fill markers"
       stroke-width="0.59098"
       fill="#eb1473"
       d="M 72.076,51.108 73.1678,46.2751 68.9204,43.8832 Z" />
  </g>
  <g
     stroke="#000000"
     stroke-linecap="round"
     stroke-linejoin="round"
     id="g42"
     transform="matrix(0.84272632,0,0,0.84272632,114.85966,29.832567)">
    <path
       d="M 140.53,146.83 C 145.5355,148.5778 150.75,149.6384 155.896,150.9214 159.7638,152.1828 162.1111,152.5723 164.3942,153.6217 162.0666,160.4394 163.54285,167.2387 166.5446,173.8287 169.4304,175.2287 174.7944,170.729 178.0906,165.9955 181.6434,160.139 183.4205,155.5835 185.7896,148.7055 L 187.7948,143.0064 C 180.3177,139.3456 172.7498,135.7786 164.9988,132.7694 158.9061,130.392 153.6628,127.8955 147.5828,125.4872 L 144.1286,136.1022 Z"
       fill="#e6e6e6"
       fill-rule="evenodd"
       stroke-width="1.5"
       style="paint-order:stroke fill markers"
       id="path36" />
    <path
       d="M 165.91,174.02 C 166.18267,174.44426 167.8196,175.5567 169.4787,176.0617 169.90324,176.1909 171.5287,175.70323 173.5959,174.2024 173.5959,174.2024 178.9091,169.8426 180.8965,166.0853 183.0457,162.0221 185.1733,159.0039 186.2901,156.1984 L 184.7229,154.0342 186.8125,154.0715 190.32,143.7725 187.7664,142.4644 C 184.4693,153.1864 180.416,165.4184 172.1914,172.0744 168.9618,174.6003 167.3673,174.1518 165.9104,174.0194 Z"
       fill="#ffffff"
       fill-rule="evenodd"
       stroke-width="0.3"
       style="paint-order:stroke fill markers"
       id="path38" />
    <path
       d="M 166.11,173.77 C 166.59377,174.5959 168.7523,176.8248 169.8566,176.2765 177.7105,172.2234 183.1896,162.6645 186.3206,156.3565 L 184.8958,153.9819 187.0593,154.14021 C 188.1172,150.68971 189.3127,147.24461 190.2782,143.74421 L 187.587,142.47771"
       fill="none"
       stroke-width="0.8"
       style="paint-order:stroke fill markers"
       id="path40" />
  </g>
  <g
     id="g62"
     transform="matrix(0.84272632,0,0,0.84272632,114.85966,29.832567)">
    <g
       fill-rule="evenodd"
       id="g56">
      <path
         d="M 147.58,125.49 177.319,138.027 187.494,142.8784 186.57263,145.7882 146.75963,128.2882 Z"
         fill="#ffffff"
         style="paint-order:stroke fill markers"
         id="path44" />
      <path
         d="M 141.36,144.27 166.478,150.9189 C 166.60902,158.5077 164.7538,165.6289 169.7497,173.3989 168.87247,173.7416 168.1326,174.24458 166.6891,173.92659 163.1792,166.98219 162.2192,159.18059 164.4547,153.60159 L 156.6011,151.14859 C 151.2604,149.80229 142.3411,147.74499 140.5151,146.79059 Z"
         fill="#b3b3b3"
         style="paint-order:stroke fill markers"
         id="path46" />
      <g
         stroke="#000000"
         stroke-linecap="round"
         stroke-linejoin="round"
         id="g54">
        <path
           d="M 141.32,147.14 150.8217,143.2787 155.8909,150.9243 C 151.774,149.7209 146.0085,148.7583 141.3199,147.14 Z"
           fill="#eb1473"
           stroke-width="0.638"
           style="paint-order:stroke fill markers"
           id="path48" />
        <path
           d="M 151.04,142.8 159.7239,141.3693 153.3916,134.6676 145.0269,137.3008 Z"
           fill="#ff318c"
           stroke-width="0.5"
           style="paint-order:stroke fill markers"
           id="path50" />
        <path
           d="M 153.52,134.16 162.3788,131.7518 148.2668,125.9419 Z"
           fill="#ff318c"
           stroke-width="0.5"
           style="paint-order:stroke fill markers"
           id="path52" />
      </g>
    </g>
    <path
       d="M 66.817,84.557 175.787,188.357 C 177.43,187.72948 178.7795,186.691 179.5909,184.8992 L 69.5809,81.4492 Z"
       fill="#c57b32"
       stroke-width="1.5537"
       id="path58" />
    <path
       d="M 63.862,81.908 98.425,114.609 C 97.84678,113.5048 95.9617,112.0978 95.07,110.2171 94.73734,109.51551 95.72656,108.3176 95.26431,107.6664 94.85245,107.0862 94.65667,108.25521 94.18851,107.78096 90.27001,103.81186 85.59871,97.95456 81.05351,93.80496 80.12241,92.95482 79.55591,95.40966 78.60501,94.39248 76.81991,92.48288 73.38751,88.20108 72.44411,86.97608 70.38861,84.30698 70.06081,83.09368 70.28441,82.59988 L 66.12761,80.04718 Z"
       fill="#a16429"
       stroke-width="1.5537"
       id="path60" />
  </g>
  <g
     transform="matrix(0.84272632,0,0,0.84272632,128.1562,30.667809)"
     id="g76">
    <g
       transform="translate(-2.5633,-2.1213)"
       id="g74">
      <g
         transform="translate(0.125)"
         fill="#1a1a1a"
         id="g68">
        <g
           fill="#1a1a1a"
           id="g66">
          <circle
             cx="164.45"
             cy="187.75999"
             r="4.4984999"
             fill="#1a1a1a"
             style="paint-order:stroke fill markers"
             id="circle64" />
        </g>
      </g>
      <ellipse
         cx="164.42"
         cy="187.63"
         rx="1.9279"
         ry="1.8492"
         fill="#e6e6e6"
         style="paint-order:stroke fill markers"
         id="ellipse70" />
      <ellipse
         cx="164.38"
         cy="187.64999"
         rx="0.59017003"
         ry="0.53114998"
         style="paint-order:stroke fill markers"
         id="ellipse72" />
    </g>
  </g>
  <path
     id="path80"
     style="fill-rule:evenodd;stroke-width:0.842719;paint-order:normal"
     fill="#ffffff"
     d="M 173.45441,53.751667 182.70502,70.27078 185.64176,68.350222 174.17225,53.262039 Z" />
  <g
     fill="#ff318c"
     fill-rule="evenodd"
     stroke="#000000"
     stroke-linecap="round"
     stroke-linejoin="round"
     stroke-width="1.5"
     id="g94"
     transform="matrix(0.84272632,0,0,0.84272632,114.85966,29.832567)">
    <path
       d="M 102.41,71.674 C 107.5376,75.6601 109.0699,82.651 110.7601,87.064 L 121.5871,90.5076 138.2981,88.0485 146.8204,84.8599 C 139.5808,78.1796 136.7754,58.8829 135.8024,55.7009 135.40014,52.7023 126.3832,39.0669 121.1244,39.7709 112.2727,42.8292 106.1334,45.9104 102.0994,44.9658 101.89616,44.918215 101.80758,49.8064 99.2782,55.2818 96.7257,62.239 100.4688,69.9818 102.4098,71.6748 Z"
       style="paint-order:stroke fill markers"
       id="path88" />
    <path
       d="M 134.26,143.13 140.5287,146.824 144.0212,136.201 147.581,125.48 140.7153,122.5696 140.08097,119.5472 130.11667,125.2162 127.96237,127.446 129.67057,130.1442 Z"
       style="paint-order:stroke fill markers"
       id="path90" />
    <path
       d="M 149.38,88.547 C 151.1739,92.0562 153.3198,95.4774 153.6015,99.365 154.45088,110.092 147.5691,113.805 139.7235,119.787 L 130.1195,125.2222 C 128.0283,128.2524 129.1033,129.0209 129.67333,130.1502 L 133.55393,140.001 137.43453,149.7025 117.73353,158.1353 111.09173,145.1503 104.59923,131.1953 C 103.39513,126.1213 104.10695,122.5815 105.79323,117.9113 110.02563,109.4932 113.00443,102.3043 119.46023,96.3573 L 126.16193,95.88238 130.11963,95.24915 C 136.93813,93.86885 143.78463,91.94035 149.38063,88.54745 Z"
       style="paint-order:stroke fill markers"
       id="path92" />
  </g>
  <g
     fill-rule="evenodd"
     id="g116"
     transform="matrix(0.84272632,0,0,0.84272632,114.85966,29.832567)">
    <g
       stroke="#000000"
       stroke-linecap="round"
       stroke-linejoin="round"
       id="g110">
      <path
         d="M 145.98,83.476 C 148.0621,85.531 148.9307,86.1731 149.35,88.2231 144.3097,93.2292 130.048,94.8433 117.392,97.0595 L 121.6719,88.9166 122.59426,92.669 C 128.23906,89.4327 137.84326,89.9353 145.98026,83.4761 Z"
         fill="#e6e6e6"
         stroke-width="0.8"
         style="paint-order:stroke fill markers"
         id="path96" />
      <g
         stroke-width="1.5"
         id="g108">
        <path
           d="M 99.382,41.217 101.9586,44.6636 C 104.5341,45.54451 114.8746,40.9564 120.7326,38.8781 117.2505,37.6797 114.2095,29.816 114.8322,26.5461 114.40365,26.65681 112.8346,28.1698 112.4228,28.3409 106.0388,30.9924 103.2561,40.9119 99.3818,41.2169 Z"
           fill="#e6e6e6"
           style="paint-order:stroke fill markers"
           id="path98" />
        <path
           d="M 93.073,97.038 C 93.073,97.038 100.258,92.1267 101.4731,91.3873 106.6024,86.4271 112.1791,82.6903 118.5741,79.7273 114.0513,70.8924 115.0424,61.7443 114.0233,52.0503 113.914,45.7272 114.0263,42.4132 119.328,40.2503 121.9724,39.58133 124.5523,40.48469 125.3531,41.467 136.9421,55.684 134.5416,72.363 132.104,89.318 122.5811,96.0614 114.149,99.0014 103.265,102.014 L 96.9299,103.2165 Z"
           fill="#ff318c"
           style="paint-order:stroke fill markers"
           id="path100" />
        <path
           d="M 88.483,108.28 C 88.18698,109.9934 89.5493,109.833 90.9632,110.338 90.9632,110.338 93.0371,109.3147 93.3378,108.7549 94.4651,106.6564 94.6219,106.0854 96.8343,104.4285 98.3341,103.3053 100.4632,102.4391 100.4632,102.4391 99.53193,100.353 98.0332,96.3358 96.6713,94.5253 L 90.9632,97.4623 C 88.0317,96.63351 85.0258,96.46249 82.4855,98.4265 81.61339,100.5936 81.99617,102.4226 84.0505,102.4226 82.7263,104.0763 82.9766,105.5685 85.7173,105.8756 85.09562,106.9303 85.09212,106.84931 86.05577,108.069 87.05563,108.62067 87.61627,108.58348 88.48317,108.28007 Z"
           fill="#ffffff"
           style="paint-order:stroke fill markers"
           id="path102" />
        <path
           d="M 63.734,31.134 60.0398,27.1009 C 57.9752,26.25522 55.5617,25.3304 53.8338,24.1835 53.32773,23.84758 53.798769,22.2359 53.791459,21.5646 54.177179,20.60523 53.450299,20.4668 54.648579,19.4433 54.749599,19.357007 55.178819,17.2356 55.191779,17.2114 55.223349,17.152466 56.420779,16.33944 56.452779,16.21432 57.014109,15.30915 59.135879,15.74277 60.903179,15.94748 60.872407,15.910068 61.791249,16.41413 62.017779,16.68704 62.337769,17.29801 62.976759,18.30124 63.416279,18.20524 64.088299,18.05856 64.675579,16.63074 65.024379,15.86744 65.111849,14.11884 67.358079,13.50014 68.168679,13.65454 68.015629,14.6251 67.755929,14.51209 67.552709,15.56114 67.518722,15.73658 66.306709,18.43594 66.360409,19.38284 66.416784,20.85644 67.507209,22.54834 67.649009,22.69014 67.860089,22.90122 69.169209,25.59324 69.169209,25.59324 L 70.066289,26.96524 Z"
           fill="#e6e6e6"
           style="paint-order:stroke fill markers"
           id="path104" />
        <path
           d="M 113.36,150.94 131.103,180.491 C 124.8112,185.6961 123.6288,193.974 124.0027,199.18 124.0027,199.18 128.4436,199.7277 132.4741,198.60428 140.6602,195.35478 142.9891,192.74968 149.1671,187.63328 L 156.8727,179.62738 146.7407,165.16838 134.4817,141.41838 C 129.0028,146.60368 121.4047,150.49788 113.3597,150.94058 Z"
           fill="#e6e6e6"
           style="paint-order:stroke fill markers"
           id="path106" />
      </g>
    </g>
    <path
       d="M 125.74,199.2 C 126.41906,191.9771 126.8152,185.876 132.6528,179.992 L 116.2948,150.652 C 115.2746,150.829 114.3072,150.91146 113.287,150.81031 L 130.701,180.15031 C 125.4426,186.21741 123.5244,191.81131 124.0521,199.14731 Z"
       fill="#b3b3b3"
       style="paint-order:stroke fill markers"
       id="path112" />
    <path
       d="M 123.4,199.31 C 123.50563,200.3248 123.24582,200.6221 124.10201,201.0424 125.17831,201.57076 128.91281,201.46132 132.88541,200.59652 141.60541,196.94862 144.60241,194.30742 150.49741,190.07452 L 149.99688,187.81382 153.03468,187.83567 158.85558,181.34317 157.19318,179.09847 C 153.91838,183.08387 148.60928,188.88957 142.59518,193.17547 140.49558,194.67187 137.10258,196.52697 135.21448,197.49187 130.42508,199.93937 126.88658,199.44617 123.40048,199.30997 Z"
       fill="#ffffff"
       stroke="#000000"
       stroke-linecap="round"
       stroke-linejoin="round"
       stroke-width="0.3"
       style="paint-order:stroke fill markers"
       id="path114" />
  </g>
  <path
     d="M 196.32685,109.49379 202.1525,105.15779 C 203.66616,103.85359 208.14725,100.44309 211.52776,98.672344 L 218.06492,109.96742 C 214.54454,111.90206 210.36636,113.17879 206.41323,114.68121 L 199.83184,116.28216 C 197.38421,115.51048 197.49487,111.75635 196.32634,109.49345 Z"
     fill="#ffffff"
     fill-rule="evenodd"
     stroke="#000000"
     stroke-linecap="round"
     stroke-linejoin="round"
     stroke-width="0.842726"
     style="paint-order:stroke fill markers"
     id="path118" />
  <g
     fill-rule="evenodd"
     id="g138"
     transform="matrix(0.84272632,0,0,0.84272632,114.85966,29.832567)">
    <path
       d="M 105.87,87.351 112.0267,87.79876 114.7135,81.68696 Z"
       fill="#ff318c"
       stroke="#000000"
       stroke-linecap="round"
       stroke-linejoin="round"
       stroke-width="0.75"
       style="paint-order:stroke fill markers"
       id="path120" />
    <path
       d="M 97.433,97.015 106.3882,92.6866 112.3583,88.4329 116.9761,85.3913 122.2025,94.5624 108.6405,100.6836 100.8307,102.5833 98.9251,101.4926 Z"
       fill="#e6e6e6"
       opacity="0.73871"
       style="paint-order:stroke fill markers"
       id="path122" />
    <path
       d="M 122.47,95.09 115.9402,94.67955 112.619,99.11225 Z"
       fill="#ff318c"
       stroke="#000000"
       stroke-linecap="round"
       stroke-linejoin="round"
       stroke-width="0.75"
       style="paint-order:stroke fill markers"
       id="path124" />
    <path
       d="M 112.36,88.433 109.3749,92.9852 115.6024,94.0827 118.1809,88.9927 Z"
       fill="#ff318c"
       stroke="#000000"
       stroke-linecap="round"
       stroke-linejoin="round"
       stroke-width="0.75"
       style="paint-order:stroke fill markers"
       id="path126" />
    <path
       d="M 96.926,97.201 98.1397,101.317 99.7228,102.7418 94.9736,105.6969 C 94.9736,105.6969 93.7071,108.3354 93.4961,108.5464 93.28503,108.75748 90.9632,110.3406 90.9632,110.3406 90.25106,109.82573 89.1699,109.86447 88.958,108.5992 86.7224,107.92939 85.8291,107.3508 85.9283,105.3768 83.7122,104.61155 84.1776,103.6411 84.3671,102.2405 81.9961,101.29514 82.2051,99.5987 83.38237,98.9527 87.62557,97.7598 92.55467,97.9221 96.92637,97.2011 Z"
       fill="#e6e6e6"
       opacity="0.73871"
       style="paint-order:stroke fill markers"
       id="path128" />
    <path
       d="M 114.23,152.29 123.9395,157.2503 122.3564,165.9044 Z"
       fill="#eb1473"
       stroke="#000000"
       stroke-linecap="round"
       stroke-linejoin="round"
       stroke-width="0.5"
       style="paint-order:stroke fill markers"
       id="path130" />
    <path
       d="M 131.87,143.99 134.4793,141.5306 146.7383,165.1696 156.6589,179.4696 155.4716,180.8944 144.4166,165.2744 Z"
       fill="#f9f9f9"
       style="paint-order:stroke fill markers"
       id="path132" />
    <path
       d="M 124.31,156.96 124.57385,148.7016 131.64495,153.53 131.85603,162.4216 Z"
       fill="#ff318c"
       stroke="#000000"
       stroke-linecap="round"
       stroke-linejoin="round"
       stroke-width="0.5"
       style="paint-order:stroke fill markers"
       id="path134" />
    <path
       d="M 132.07,153.35 132.03227,144.6515 138.40557,149.4269 138.85048,150.22663 139.68527,158.76763 Z"
       fill="#ff318c"
       stroke="#000000"
       stroke-linecap="round"
       stroke-linejoin="round"
       stroke-width="0.5"
       style="paint-order:stroke fill markers"
       id="path136" />
  </g>
  <path
     d="M 219.04595,197.43393 C 218.8255,199.59175 220.28522,199.78376 222.22188,199.69804 224.57313,199.55229 226.69943,198.92146 228.88821,198.12574 233.58575,196.03271 237.60875,193.10851 241.6547,190.01289 L 241.21445,188.12624 243.76152,188.1577 248.63546,182.62333 246.71736,180.13915"
     fill="none"
     stroke="#000000"
     stroke-linecap="round"
     stroke-linejoin="round"
     stroke-width="0.842726"
     style="paint-order:stroke fill markers"
     id="path140" />
  <g
     fill-rule="evenodd"
     id="g150"
     transform="matrix(0.84272632,0,0,0.84272632,114.85966,29.832567)">
    <path
       d="M 137.59,93.809 138.8487,97.0153 142.3935,96.04515 141.61802,92.51395 C 140.49302,93.0381 139.21882,93.49422 137.59002,93.80895 Z"
       fill="#e6e6e6"
       stroke="#000000"
       stroke-linecap="round"
       stroke-linejoin="round"
       stroke-width="0.5"
       style="paint-order:stroke fill markers"
       id="path142" />
    <path
       d="M 132.02,142.63 C 132.02,142.63 132.22052,142.05374 132.99953,141.67275 133.35102,141.50085 133.95632,141.17076 133.69021,140.57475 132.83433,138.65775 129.67651,130.14675 129.67651,130.14675 128.54851,127.73085 128.70872,127.31255 130.12268,125.21875 L 143.85568,117.18825 C 143.85568,117.18825 151.45818,109.34845 152.44588,107.23235 152.7981,106.4777 153.38437,104.63615 153.57568,102.65815 153.81998,100.13155 153.31396,97.34395 153.09303,96.68115 L 151.79223,93.33385 149.45023,88.76505 147.19353,90.40965 C 151.65403,95.97245 151.40953,98.97185 150.75533,105.62265 L 147.13033,110.99765 140.13033,116.74765 C 135.25863,119.84815 125.91733,122.93045 125.63033,128.24765 128.20683,132.86885 130.20973,137.68135 132.02053,142.63065 Z"
       fill="#ff31af"
       opacity="0.996"
       style="paint-order:normal"
       id="path144" />
    <path
       d="M 134.28,98.713 C 133.91287,100.0745 134.53522,101.2525 135.25014,102.2205 138.26614,101.41995 143.45904,99.9605 148.53914,98.5683 148.75067,97.2405 148.40219,95.9407 147.43704,94.9071 144.50924,95.70795 137.18004,97.8184 134.28004,98.7131 Z"
       fill="#e6e6e6"
       stroke="#000000"
       stroke-linecap="round"
       stroke-linejoin="round"
       stroke-width="0.5"
       style="paint-order:stroke fill markers"
       id="path146" />
    <path
       d="M 135.55,102.59 C 138.6706,108.7333 140.9412,110.9151 143.8517,117.191 145.3061,118.1415 148.3386,117.05167 149.2301,115.4693 L 148.46043,98.9333 Z"
       fill="#e6e6e6"
       stroke="#000000"
       stroke-linecap="round"
       stroke-linejoin="round"
       stroke-width="0.8"
       style="paint-order:stroke fill markers"
       id="path148" />
  </g>
  <g
     fill="#ffffff"
     fill-rule="evenodd"
     id="g158"
     transform="matrix(0.84272632,0,0,0.84272632,114.85966,29.832567)">
    <path
       d="M 140.34,93.062 C 140.87341,92.86574 141.3151,92.67841 141.6496,92.53188 L 142.36231,96.00708 141.28021,96.3429 Z"
       style="paint-order:stroke fill markers"
       id="path152" />
    <path
       d="M 145.83,95.373 C 146.72552,95.09315 147.5091,94.92524 147.5091,94.92524 148.48866,96.14224 148.5917,97.14414 148.5539,98.54464 L 146.8935,99.01106 Z"
       style="paint-order:stroke fill markers"
       id="path154" />
    <path
       d="M 147.04,99.328 148.4952,98.95487 148.66311,104.23477 149.1855,115.44777 148.73774,116.04479 Z"
       style="paint-order:stroke fill markers"
       id="path156" />
  </g>
  <path
     id="path160"
     style="fill-rule:evenodd;paint-order:stroke fill markers"
     stroke-width="0.842726"
     stroke-linejoin="round"
     stroke-linecap="round"
     stroke="#000000"
     fill="#eb1473"
     d="M 176.81941,68.683929 180.27579,70.082266 180.47393,66.342583 177.17829,64.453269 Z" />
  <path
     id="path164"
     style="fill-rule:evenodd;paint-order:stroke fill markers"
     stroke-width="0.842726"
     stroke-linejoin="round"
     stroke-linecap="round"
     stroke="#000000"
     fill="#ff318c"
     d="M 180.79035,62.312068 180.84886,66.078305 184.45387,67.427672 184.4439,66.937007 C 183.95544,66.481789 181.00288,62.634554 180.79042,62.312124 Z" />
  <path
     id="path168"
     style="fill-rule:evenodd;paint-order:normal"
     stroke-width="0.842726"
     stroke-linejoin="round"
     stroke="#000000"
     fill="#e6e6e6"
     d="M 162.31863,43.465347 C 162.87493,44.533752 164.80358,46.554527 164.80358,46.554527 165.84552,46.950217 166.59083,47.228345 167.59772,47.178021 168.24452,46.897956 167.5946,45.590659 166.13847,45.287622 165.98364,45.255378 165.30691,44.044107 165.13402,44.045192" />
  <path
     id="path170"
     style="fill-rule:evenodd;paint-order:normal"
     stroke-width="0.842726"
     stroke-linejoin="round"
     stroke="#000000"
     fill="#e6e6e6"
     d="M 161.11522,45.349685 C 161.95828,46.455004 162.54954,47.491208 163.52364,47.97538 163.63507,48.030749 164.05497,48.353982 164.15925,48.349213 164.92872,48.314082 164.87325,47.925987 165.4841,48.040312" />
  <g
     fill-rule="evenodd"
     id="g190"
     transform="matrix(0.84272632,0,0,0.84272632,114.85966,29.832567)">
    <g
       stroke-linejoin="round"
       id="g180">
      <path
         d="M 53.662,21.322 57.1465,23.479"
         fill="#ffffff"
         stroke="#000000"
         stroke-width="0.5"
         style="paint-order:normal"
         id="path174" />
      <path
         d="M 53.755,23.875 56.0358,24.66558"
         fill="#ffffff"
         stroke="#000000"
         stroke-width="0.5"
         style="paint-order:normal"
         id="path176" />
      <path
         d="M 59.377,20.22 C 59.93234,20.32615 60.591,20.7044 60.8004,20.79899 61.2879,21.01921 61.03524,22.10009 60.27804,22.21579 59.92796,22.26927 59.03294,21.99789 58.49014,21.95958"
         fill="#808080"
         stroke="#808080"
         stroke-width="0.2"
         style="paint-order:normal"
         id="path178" />
    </g>
    <path
       d="M 58.097,21.895 59.2305,20.0139 C 59.36979,20.079095 59.45052,20.107835 59.54114,20.12436 59.29756,20.7902 58.98485,21.16926 58.62327,21.76426 58.50511,21.86355 58.21512,22.04393 58.09696,21.89498 Z"
       fill="#cccccc"
       style="paint-order:normal"
       id="path182" />
    <path
       d="M 56.833,23.57 57.9665,21.6889 C 58.10579,21.754095 58.19757,21.771786 58.28819,21.78831 58.04461,22.45415 57.65456,23.03211 57.29298,23.62711 57.17482,23.7264 56.95112,23.718955 56.83296,23.570009 Z"
       fill="#666666"
       style="paint-order:normal"
       id="path184" />
    <path
       d="M 58.154,21.946 C 58.7885,21.972998 59.703,22.85406 59.6565,23.0791 59.53244,23.67952 58.4611,23.91158 57.1456,23.57515"
       fill="#666666"
       stroke="#666666"
       stroke-linejoin="round"
       stroke-width="0.2"
       style="paint-order:normal"
       id="path186" />
    <path
       d="M 59.7,19.718 C 59.84175,19.41848 60.27416,18.93718 60.52459,18.4823 60.584375,18.413589 60.78852,18.532429 60.73953,18.59471 60.49595,19.26055 60.38598,19.19157 60.02441,19.78661 59.90625,19.8859 59.75176,19.800564 59.70001,19.718024 Z"
       fill="#cccccc"
       style="paint-order:normal"
       id="path188" />
  </g>
  <path
     d="M 200.91891,68.228856 C 202.0859,68.486682 210.04994,66.179686 208.87211,66.5434 207.62165,79.437958 207.64093,85.953921 211.97963,97.776521 L 207.29193,100.41006 204.86927,94.563628 C 204.20612,93.090883 202.57769,91.671145 200.91502,89.973472 199.52312,88.552294 197.84991,84.098897 197.86398,82.186106 197.40436,78.032811 199.94177,73.685508 200.49752,69.38676 200.49752,68.860056 200.91891,68.228 200.91891,68.228 Z"
     fill="#eb1473"
     fill-rule="evenodd"
     opacity="0.996"
     style="stroke-width:0.842719;paint-order:normal"
     id="path198" />
  <g
     fill-rule="evenodd"
     id="g212"
     transform="matrix(0.84272632,0,0,0.84272632,114.85966,29.832567)">
    <path
       d="M 56.686,23.596 C 57.50832,23.92131 58.92,24.27204 58.8735,24.49705 58.74944,25.09747 57.2693,25.10856 55.9538,24.77213"
       fill="#666666"
       stroke="#666666"
       stroke-linejoin="round"
       stroke-width="0.2"
       style="paint-order:normal"
       id="path206" />
    <path
       d="M 68.174,13.768 C 68.03199,13.52422 67.9563,13.700212 67.70349,13.678041 66.28229,15.842541 65.54309,18.005441 65.87539,20.110841 66.29397,22.763241 67.88839,25.289241 69.31659,27.488741 L 70.13418,27.002601 C 68.74868,23.556801 65.46968,21.295701 66.70918,17.699701 67.18899,16.353101 67.89488,14.860601 68.17408,13.768001 Z"
       fill="#ffffff"
       style="paint-order:normal"
       id="path208" />
    <path
       d="M 111.81,29.16 C 111.73118,30.3403 115.8168,38.5292 117.6657,40.025 L 120.6665,38.9277 C 119.4813,38.38992 118.767,37.6952 118.0716,36.9942 L 116.1738,33.9654 115.34598,31.3128 C 114.96092,29.9344 114.84276,28.5064 114.65825,27.0918 113.8901,27.24987 112.35715,28.7946 111.80995,29.1602 Z"
       fill="#ffffff"
       style="paint-order:normal"
       id="path210" />
  </g>
  <path
     d="M 214.59629,96.871438 C 215.99609,96.466426 217.06986,96.333058 217.87387,96.424514"
     fill="none"
     stroke="#000000"
     stroke-linejoin="round"
     stroke-width="0.842726"
     style="paint-order:normal"
     id="path214" />
  <g
     fill-rule="evenodd"
     id="g244"
     transform="matrix(0.84272632,0,0,0.84272632,114.85966,29.832567)">
    <path
       d="M 121.78,92.434 C 123.538,91.3216 130.5465,86.9744 130.5465,86.9744 128.0799,71.4354 136.4881,58.6474 121.6981,39.9904 L 124.2557,40.78511 C 125.6715,41.29994 129.2049,47.03591 130.2143,48.40611 130.92725,49.37384 132.3715,54.32491 133.3366,59.37111 135.268,67.27071 133.37025,75.09411 133.17757,83.23111 133.22793,85.74421 132.15087,89.21661 132.15087,89.21661 128.72827,91.18121 127.01117,92.83931 123.29867,94.75291 Z"
       fill="#ff31af"
       opacity="0.996"
       style="paint-order:normal"
       id="path216" />
    <g
       stroke="#000000"
       stroke-linejoin="round"
       stroke-width="0.4"
       id="g224">
      <path
         d="M 105.8,46.514 102.2645,57.099 107.6285,68.163 111.2801,55.685 Z"
         fill="#e6e6e6"
         opacity="0.996"
         style="paint-order:normal"
         id="path218" />
      <path
         d="M 100.14,52.496 101.8895,57.0364 100.4128,64.5548 98.5832,62.1053 C 98.11624,60.3082 98.39164,58.7251 98.69699,56.9457 99.35376,55.2657 99.62652,54.2235 100.14009,52.4961 Z"
         fill="#e6e6e6"
         opacity="0.996"
         style="paint-order:normal"
         id="path220" />
      <path
         d="M 111.59,55.596 113.5712,45.572 C 112.87323,52.7438 113.76481,59.782 114.8162,66.38 Z"
         fill="#ffffff"
         opacity="0.996"
         style="paint-order:normal"
         id="path222" />
    </g>
    <path
       d="M 112.34,52.844 111.80875,55.6878 112.83995,59.0316 Z"
       fill="#e6e6e6"
       opacity="0.996"
       style="paint-order:normal"
       id="path226" />
    <path
       d="M 143.44,85.312 145.94,83.562 147.8775,85.4995 149.1275,87.187 149.315,88.312 146.815,90.1245 146.065,90.3745 Z"
       fill="#ffffff"
       opacity="0.996"
       style="paint-order:normal"
       id="path228" />
    <path
       d="M 142.26,85.295 145.442,83.3947 C 145.442,83.3947 142.039,78.4891 141.7297,77.3401 141.42034,76.1911 139.3874,70.5784 139.3874,70.5784 L 136.4264,58.7784 135.1006,53.917 132.8909,49.9395 130.0625,45.9178 134.1726,53.7844 136.2939,62.3139 138.7688,71.7273 141.0227,79.8148 Z"
       fill="#ff31af"
       opacity="0.996"
       style="paint-order:normal"
       id="path230" />
    <path
       d="M 117.29,149.38 C 99.007,127.394 108.3218,110.813 123.654,96.877 L 120.9192,96.90055 117.6436,98.20285 C 112.7948,103.20625 108.6057,111.46585 106.2376,117.15285 105.1194,119.83775 104.8878,121.88045 104.2973,122.86305 L 103.91781,128.81335 106.33021,135.14895 113.75481,150.43995 Z"
       fill="#eb1473"
       opacity="0.996"
       style="paint-order:normal"
       id="path232" />
    <path
       d="M 145.38,129.62 C 143.38,128.87 138.005,125.745 138.005,125.745 138.005,125.745 135.13,123.245 136.13,122.62 137.13,121.995 140.13,119.995 140.13,119.995 140.46847,120.02577 140.31857,122.5669 140.755,122.745 L 146.88,125.245 Z"
       fill="#eb1473"
       opacity="0.996"
       style="paint-order:normal"
       id="path234" />
    <g
       stroke="#000000"
       stroke-linejoin="round"
       id="g242">
      <path
         d="M 93.621,41.816 C 84.7212,38.5056 77.593,21.427 76.629,9.165 77.0858,5.4458 78.85,-7.547 94.451,-10.552 96.4932,-10.84456 100.5151,-10.72487 100.5151,-10.72487 125.0291,-9.79213 122.8551,16.33513 118.8161,27.46513 113.4879,29.75423 108.9526,33.67983 106.1981,38.03813 103.8966,41.68043 97.6212,42.84393 93.6201,41.81563 Z"
         fill="#ff318c"
         stroke-linecap="round"
         stroke-width="1.5"
         style="paint-order:stroke fill markers"
         id="path236" />
      <path
         d="M 121.09,18.625 C 121.09,18.625 111.6525,26.1875 110.246,27.25 109.54078,27.78283 105.371,30.625 105.371,30.625 L 89.246,33.625 83.7813,32.5152 C 86.3364,38.5465 92.3381,42.7422 97.4963,42.6252 103.1728,42.07402 105.8726,39.7928 108.6843,35.1877 111.7303,32.084 114.8689,29.4282 119.1533,27.6252 120.06836,25.231 120.4723,21.6867 121.0908,18.6252 Z"
         fill="#e6e6e6"
         stroke-width="0.5"
         id="path238" />
      <path
         d="M 86.722,26.385 C 90.684,25.885 102.529,24.8924 106.435,24.2119 106.41804,30.9147 104.353,38.1369 99.871,38.7149 99.3675,38.761756 98.4796,37.86703 97.8549,37.92529 96.99334,38.005633 96.3489,39.24259 95.787,39.11849 90.6502,37.98419 87.7334,30.60919 86.7223,26.38549 Z"
         fill="#999999"
         opacity="0.996"
         stroke-width="0.4"
         style="paint-order:normal"
         id="path240" />
    </g>
  </g>
  <path
     d="M 191.2115,55.412675 C 192.17726,56.227544 193.93316,58.489563 196.77121,58.185833 199.82167,57.876321 200.55844,55.745298 201.54665,54.396505 198.49889,55.145707 194.52215,55.452285 191.21142,55.412675 Z"
     fill="none"
     opacity="0.996"
     stroke="#333333"
     stroke-linejoin="round"
     stroke-width="0.842726"
     id="path246" />
  <path
     d="M 216.45873,46.257289 212.82912,49.043101 212.38758,54.388095 215.04337,52.923942 216.01161,49.087843 Z"
     fill="#ffffff"
     fill-rule="evenodd"
     id="path248"
     style="stroke-width:0.842719" />
  <path
     d="M 191.25532,55.383192 C 192.2211,56.198062 193.97699,58.460065 196.81505,58.156337 199.86542,57.846822 200.60223,55.715814 201.59039,54.367009 198.54271,55.116211 194.56597,55.422804 191.25524,55.383192 Z"
     fill="none"
     opacity="0.996"
     stroke="#333333"
     stroke-linejoin="round"
     stroke-width="0.842726"
     id="path250" />
  <g
     fill-rule="evenodd"
     id="g258"
     transform="matrix(0.84272632,0,0,0.84272632,114.85966,29.832567)">
    <path
       d="M 93.347,11.55 C 90.5706,4.4464 90.9273,-4.145 92.91394,-10.192 94.95334,-10.90561 96.40754,-10.87207 97.66804,-10.75006 95.06434,-3.32296 95.70514,3.72894 97.572989,10.87494 L 96.249789,15.99994 Z"
       fill="#ffffff"
       id="path252" />
    <path
       d="M 77.964,7.3509 C 78.9453,3.6646 86.5846,2.315 90.8,6.2813 93.5333,8.6349 94.2668,11.1562 96.1112,14.2856 96.57352,9.6485 97.614,5.0483 101.5718,1.9426 105.4308,-0.6366 111.1855,-0.324 112.1798,2.25859 112.43918,2.13963 115.2422,12.73859 111.31937,16.44659 107.67177,19.95969 102.92297,19.99509 96.07837,21.03469 90.70127,21.85141 85.85337,21.97157 82.84037,20.17615 81.24917,19.22795 79.44657,16.91975 78.56927,14.15305 77.79385,11.70775 77.84019,8.82515 77.96443,7.35085 Z"
       fill="#ffffff"
       opacity="0.996"
       style="paint-order:normal"
       id="path254" />
    <path
       d="M 78.524,9.4032 C 79.48318,5.8 86.9502,4.4809 91.07,8.3577 93.7417,10.6583 94.4587,13.1228 96.2615,16.1815 96.7134,11.6489 97.7304,7.1524 101.599,4.1165 105.371,1.5954 110.6522,1.6198 111.967,4.42537 112.20721,4.459603 114.9604,14.66937 111.12601,18.29337 107.56061,21.72727 102.91881,21.76187 96.22901,22.77807 90.97311,23.57637 86.23491,23.69383 83.29001,21.93888 81.73461,21.01206 79.97271,18.75588 79.11521,16.05158 78.35728,13.66138 78.40257,10.84378 78.52401,9.40278 Z"
       opacity="0.996"
       stroke="#000000"
       stroke-linejoin="round"
       stroke-width="0.8"
       style="paint-order:normal"
       id="path256" />
  </g>
  <g
     fill="#4d4d4d"
     fill-rule="evenodd"
     id="g266"
     transform="matrix(0.84272632,0,0,0.84272632,114.85966,29.832567)">
    <path
       d="M 101.52,4.1493 C 104.7401,10.1704 104.6174,18.0503 104.7497,21.5163 107.3234,20.89877 110.057,19.6017 109.9524,19.2877 108.5477,18.65029 104.6982,8.0167 106.2434,2.2547 104.3729,2.73014 103.0479,3.09085 101.5199,4.1492 Z"
       opacity="0.996"
       style="paint-order:normal"
       id="path260" />
    <path
       d="M 83.602,6.1679 C 83.18389,11.3208 84.8854,19.6029 87.6462,23.1929 88.22411,23.34871 91.2898,23.49785 91.1373,23.1929 90.5936,22.77376 86.4094,13.2583 85.8747,6.7499 L 85.93276,6.25748 C 85.22278,5.92658 84.42476,6.04911 83.60196,6.167791 Z"
       opacity="0.996"
       style="paint-order:normal"
       id="path262" />
    <path
       d="M 105.23,24.638 106.3348,24.43913 106.04755,28.54923 C 105.77581,30.43363 105.30366,32.20273 104.82245,33.42883 104.4864,34.28515 104.23488,34.81683 103.77155,35.59813 103.29993,36.39775 102.53415,37.27333 101.78285,37.71943 104.18975,33.89393 105.96715,28.03703 105.23005,24.63843 Z"
       id="path264" />
  </g>
  <g
     fill-rule="evenodd"
     id="g274"
     transform="matrix(0.84272632,0,0,0.84272632,114.85966,29.832567)">
    <path
       d="M 100.78,-10.679 C 117.179,-0.305 116.583,6.733 115.519,22.273 L 120.8665,18.5165 C 121.11709,14.9762 121.69787,11.6927 120.95489,7.3795 120.63371,3.5199 118.69149,-0.1946 117.02159,-2.9615 113.76369,-7.0341 110.61659,-8.6647 105.00359,-10.2326 104.2973,-10.35985 100.68599,-10.70269 100.78049,-10.67906 Z"
       fill="#ff31af"
       id="path268" />
    <path
       d="M 91.235,30.586 93.2406,30.566124 C 92.61696,31.327044 94.6003,32.281524 96.0711,33.420624 94.0561,33.085314 92.0921,31.681124 91.2349,30.586024 Z"
       fill="#1a1a1a"
       id="path270" />
    <path
       d="M 101.26,29.734 102.3675,29.52865 C 101.66305,30.94075 99.9654,32.91985 98.2594,33.17665 99.7455,31.95255 100.9807,30.62725 101.26,29.73395 Z"
       fill="#1a1a1a"
       id="path272" />
  </g>
  <g
     id="g1171"
     transform="matrix(0.8376335,0,0,0.8376335,113.70772,30.937293)">
    <path
       style="fill:#00ff00;fill-opacity:1;stroke:#008000;stroke-opacity:1"
       id="path16"
       stroke-width="1px"
       stroke="#803300"
       fill="#0f0"
       d="M 20.438,51.703 C 16.7885,46.6938 16.0006,43.08 16.2093,37.236 L 28.0053,39.2391 38.0203,40.7971 36.0172,34.1201 C 61.2952,35.11782 62.6882,37.5071 79.1952,53.2611 L 75.0777,62.4976 C 57.1507,49.3046 57.5797,46.8126 37.1307,43.2456 L 28.2281,45.4712 Z" />
    <g
       transform="translate(-0.14925373,0.2238806)"
       id="g24"
       fill-rule="evenodd"
       fill="#20dd20">
      <path
         id="path18"
         d="M 68.545,55.199 71.7712,46.2718 75.13,49.4538 Z" />
      <path
         id="path20"
         d="M 75.13,49.453 71.7712,58.6454 79.195,53.2608 Z" />
      <path
         id="path22"
         d="M 68.015,42.957 71.7715,46.2716 64.7446,52.503 Z" />
    </g>
    <path
       id="path26"
       fill-rule="evenodd"
       fill="#18a518"
       d="M 39.465,34.206 42.2934,43.6636 44.8125,34.7364 Z" />
    <path
       d="M 39.862807,34.505322 42.691207,43.962922 45.210307,35.035722 Z"
       id="path28"
       style="fill:#20dd20;fill-rule:evenodd" />
    <path
       d="M 18.693807,49.048322 C 19.047357,48.783162 28.252407,42.918022 28.252407,42.918022 L 16.819407,43.643322 C 17.064447,45.223422 18.129907,47.433322 18.693907,49.048322 Z"
       id="path30"
       style="fill:#20dd20;fill-rule:evenodd" />
    <path
       d="M 16.694807,42.133322 C 17.048357,41.775862 29.335807,43.507122 29.335807,43.507122 L 16.507807,38.131522 C 16.598165,40.172222 16.695307,42.133222 16.695307,42.133222 Z"
       id="path32"
       style="fill:#20dd20;fill-rule:evenodd" />
    <path
       d="M 46.139,34.913 51.4865,35.44333 48.5255,43.92863 Z"
       fill="#20dd20"
       id="path78"
       style="fill-rule:evenodd" />
    <path
       d="M 53.519,35.93 58.5571,37.1232 53.7399,46.1388 Z"
       fill="#20dd20"
       id="path82"
       style="fill-rule:evenodd" />
    <ellipse
       id="ellipse86"
       style="paint-order:stroke fill markers"
       fill-opacity="0.78226"
       fill="#1a1a1a"
       ry="3.3443"
       rx="3.6589999"
       cy="54.728001"
       cx="31.787001" />
    <path
       d="M 56.402493,47.008627 C 56.402493,47.008627 59.407693,37.816227 59.761293,37.904627 60.114843,37.993015 64.003893,40.158527 64.003893,40.158527 Z"
       fill="#20dd20"
       id="path162"
       style="fill-rule:evenodd" />
    <path
       d="M 60.764119,49.439627 64.078719,40.158827 67.791019,43.031427 Z"
       fill="#20dd20"
       id="path166"
       style="fill-rule:evenodd" />
    <g
       id="g1146">
      <path
         d="M 10.645,79.079 C 11.5675,57.389 11.20079,59.293 28.228,45.472 L 28.67313,35.457 37.13063,43.2468 C 58.96563,45.3736 59.88163,49.6006 76.52463,63.4998 76.52463,63.4998 81.64363,68.1737 80.53083,69.7316 74.20013,80.0056 66.14483,85.6016 55.38083,89.9846 L 44.69783,71.9566 C 36.07613,73.4478 30.27983,79.4559 26.44783,85.0876 21.45683,87.0639 10.27883,84.42686 10.64483,79.079 Z"
         stroke="#141311"
         stroke-width="3"
         id="path192" />
    </g>
    <ellipse
       id="ellipse194"
       style="paint-order:stroke fill markers"
       stroke-width="0.75591"
       stroke-linejoin="round"
       stroke-linecap="square"
       stroke="#000000"
       fill="#ffffff"
       ry="2.1143999"
       rx="2.3369"
       cy="54.819"
       cx="31.9" />
    <ellipse
       id="ellipse196"
       style="paint-order:stroke fill markers"
       stroke-width="0.54838"
       stroke-linejoin="round"
       stroke-linecap="square"
       stroke="#000000"
       ry="0.92417002"
       rx="0.91680998"
       cy="55.266998"
       cx="32.299" />
    <path
       id="path200"
       fill-rule="evenodd"
       fill="#1a1a1a"
       d="M 63.594,85.594 C 54.6467,76.1155 50.397,62.873 45.929,66.042 45.929,66.042 37.8677,69.6994 31.25,74.5002 27.633,77.3283 25.4899,80.5205 23.5,84.5002 19.0272,83.76782 15.9646,81.681 11.825,79.9408 12.36631,82.4511 22.94,86.324 26.166,84.7476 27.4324,82.9813 28.4113,81.6369 30.8553,79.0141 34.2061,76.4269 36.3899,73.2577 44.9133,71.4409 L 50.412,80.5003 55.6897,89.5155 Z" />
    <path
       id="path202"
       fill="#aa4400"
       d="M 13.007,61.422 C 16.0116,62.7574 25.361,70.3286 25.361,70.3286 32.8043,67.2738 38.89,62.4866 45.281,57.7536 L 41.96,44.3256 C 42.82127,44.282535 43.5922,44.51062 44.3732,44.70823 L 47.284,58.53323 47.51874,75.60923 46.03294,73.15743 C 46.03294,73.15743 45.61467,65.20923 45.61467,64.65283 45.61467,64.09642 45.3921,59.86763 45.3921,59.86763 39.8877,64.85453 33.6181,68.24273 27.0991,71.62063 L 29.2562,73.66643 33.2624,76.76583 31.5703,78.16033 C 31.5703,78.16033 21.8559,70.60613 21.1883,69.93843 20.5206,69.27074 12.4936,63.42513 12.4936,63.42513 12.582806,62.97643 12.74193,62.34123 13.00774,61.42163 Z" />
    <path
       id="path204"
       style="paint-order:stroke fill markers"
       fill="#333333"
       d="M 22.133,78.535 C 22.133,79.672 21.13652,80.5937 19.9073,80.5937 18.67808,80.5937 17.6816,79.67199 17.6816,78.535 17.6816,77.39801 20.1807,74.6201 19.9073,76.4763 19.72819,77.6924 22.133,77.39801 22.133,78.535" />
    <path
       id="path276"
       fill-rule="evenodd"
       fill-opacity="0.51613"
       fill="#565656"
       d="M 55.5,56 76,74.5 78.75,71.5 Z" />
    <path
       id="path278"
       fill-rule="evenodd"
       fill-opacity="0.5"
       fill="#3e3e3e"
       d="M 57.5,68.25 C 63.75,71.75 69.75,81.5 69.75,81.5 L 72.5,78.75 Z" />
  </g>
</svg>
