<?xml version="1.0" encoding="UTF-8"?>
<svg viewBox="0 0 32 32" xmlns="http://www.w3.org/2000/svg" xmlns:cc="http://creativecommons.org/ns#" xmlns:dc="http://purl.org/dc/elements/1.1/" xmlns:rdf="http://www.w3.org/1999/02/22-rdf-syntax-ns#">
 <g>
  <path d="m16 31a15 15 0 1 1 15-15 15 15 0 0 1-15 15zm0-28a13 13 0 1 0 13 13 13 13 0 0 0-13-13z"/>
  <path d="m8.93 18.47 7.07-7.07 7.07 7.07a1 1 0 0 1 0 1.41 1 1 0 0 1-1.41 0l-5.66-5.65-5.66 5.66a1 1 0 0 1-1.41 0 1 1 0 0 1 0-1.42z"/>
 </g>
</svg>
